<?xml version="1.0" encoding="UTF-8"?>
<svg id="Layer_1" data-name="Layer 1" xmlns="http://www.w3.org/2000/svg" viewBox="0 0 324.6 454.21">
  <defs>
    <style>
      .cls-1 {
        fill: #5f9ea0;
      }

      .cls-2 {
        fill: #f8f8f8;
        stroke: #708090;
        stroke-miterlimit: 10;
      }

      .cls-3 {
        fill: #d47373;
      }
    </style>
  </defs>
  <path class="cls-1" d="M215.22,453.76h-118.64c-30.81,0-55.79-24.04-55.79-53.69L7.42,214.07c0-29.65,58.34-23.54,89.15-23.54h118.64c30.81,0,91.74-4.34,91.74,25.31l-35.94,184.22c0,29.65-24.98,53.69-55.79,53.69Z"/>
  <path class="cls-3" d="M167.81,453.86h-14.79c-15.2,0-27.63-11.96-27.63-26.59l-8.48-226.12c0-14.62,20.91-10.14,36.11-10.14h14.79c15.2,0,38.44-4.1,38.44,10.53l-10.81,225.74c0,14.62-12.43,26.59-27.63,26.59Z"/>
  <path class="cls-3" d="M226.9,452.82l-7.71,1.11c-15.2,0,3.49-7.33,7.58-44.73l13.25-192.23c0-14.62-3.23-26.46,11.96-26.46l17.2.48c15.2,0,38.2,8.73,38.2,23.35l-36.7,196.11c0,14.62-28.59,42.35-43.79,42.35Z"/>
  <path class="cls-3" d="M85.81,453.09l7.71,1.11c15.2,0-3.49-7.33-7.58-44.73l-13.25-192.23c0-14.62,3.23-26.46-11.96-26.46l-17.2.48c-15.2,0-38.2,8.73-38.2,23.35l36.7,196.11c0,14.62,28.59,42.35,43.79,42.35Z"/>
  <path class="cls-2" d="M102.09,134.22c-.52-19.63-16.01-35.38-35.08-35.38s-35.13,16.29-35.13,36.39c0,.94.07,1.85.14,2.77-17.7,1.88-31.51,17.37-31.51,36.2,0,20.1,15.73,36.39,35.13,36.39,15.85,0,29.24-10.88,33.61-25.81,5.34,13.05,17.82,22.2,32.36,22.2,19.4,0,35.13-16.29,35.13-36.39s-15.47-36.09-34.64-36.36Z"/>
  <path class="cls-2" d="M215.84,151.1c8.54-17.83,1.87-38.55-15.25-46.65-17.41-8.24-39-.3-48.21,17.73-.43.84-.79,1.69-1.15,2.55-16.74-5.84-36.24,2.2-44.88,19.09-9.22,18.03-2.58,39.33,14.83,47.57,14.22,6.73,31.22,2.66,42-8.88-1.19,13.97,5.8,27.49,18.85,33.67,17.41,8.24,39,.3,48.21-17.73,9.14-17.88,2.67-38.95-14.41-47.34Z"/>
  <path class="cls-2" d="M244.28,50.41c8.54-17.83,1.87-38.55-15.25-46.65-17.41-8.24-39-.3-48.21,17.73-.43.84-.79,1.69-1.15,2.55-16.74-5.84-36.24,2.2-44.88,19.09-9.22,18.03-2.58,39.33,14.83,47.57,14.22,6.73,31.22,2.66,42-8.88-1.19,13.97,5.8,27.49,18.85,33.67,17.41,8.24,39,.3,48.21-17.73,9.14-17.88,2.67-38.95-14.41-47.34Z"/>
  <path class="cls-2" d="M134.01,56.09c-.81,0-1.6.07-2.4.15-1.89-17.2-13.52-30.44-27.62-30.44-12.59,0-23.22,10.55-26.71,25.04-3.46-1.95-7.28-3.05-11.32-3.05-15.42,0-27.92,15.83-27.92,35.36s12.5,35.36,27.92,35.36c1.33,0,2.62-.16,3.9-.38,3.66,14.12,14.14,24.32,26.52,24.32,10.92,0,20.35-7.95,24.94-19.52,3.81,2.47,8.11,3.89,12.68,3.89,15.42,0,27.92-15.83,27.92-35.36s-12.5-35.36-27.92-35.36Z"/>
  <path class="cls-2" d="M296.18,122.98c-.81,0-1.6.07-2.4.15-1.89-17.2-13.52-30.44-27.62-30.44-12.59,0-23.22,10.55-26.71,25.04-3.46-1.95-7.28-3.05-11.32-3.05-15.42,0-27.92,15.83-27.92,35.36s12.5,35.36,27.92,35.36c1.33,0,2.62-.16,3.9-.38,3.66,14.12,14.14,24.32,26.52,24.32,10.92,0,20.35-7.95,24.94-19.52,3.81,2.47,8.11,3.89,12.68,3.89,15.42,0,27.92-15.83,27.92-35.36s-12.5-35.36-27.92-35.36Z"/>
  <path class="cls-2" d="M232.54,78.63c-.59,0-1.17.05-1.75.12-1.38-13.64-9.87-24.14-20.17-24.14-9.19,0-16.95,8.36-19.5,19.86-2.53-1.54-5.32-2.42-8.26-2.42-11.26,0-20.39,12.55-20.39,28.04s9.13,28.04,20.39,28.04c.97,0,1.92-.13,2.85-.31,2.67,11.2,10.33,19.29,19.36,19.29,7.97,0,14.86-6.31,18.21-15.48,2.78,1.96,5.92,3.08,9.26,3.08,11.26,0,20.39-12.55,20.39-28.04s-9.13-28.04-20.39-28.04Z"/>
</svg>